<svg width="64" height="50" viewBox="0 0 64 50" fill="none" xmlns="http://www.w3.org/2000/svg">
<path d="M59.5296 30.6625C54.211 30.6625 49.8479 26.5023 49.518 21.2653C49.3254 21.2754 49.1319 21.2813 48.9375 21.2813C48.9375 21.2813 48.9375 21.2813 48.9373 21.2813C48.8814 21.2813 48.8253 21.2809 48.7691 21.28C46.9793 21.2528 45.2609 20.7896 43.7308 19.9446L38.4456 22.0321C36.8906 22.6463 35.6441 23.7439 34.848 25.1151C35.2153 25.0398 35.5991 24.9995 35.998 24.9995H40.6885V27.6844C42.0951 28.1421 43.315 29.1025 44.0793 30.3963L47.8875 32.5138V36.2761C47.8875 39.3809 45.5203 41.943 42.496 42.2524L42.5029 44.2031L43.2436 44.884C44.517 46.0548 45.1569 47.6988 45.0409 49.3705H64V28.752C64 27.3036 63.5766 25.9378 62.8248 24.7893L60.885 30.6625H59.5296Z" fill="#835948"/>
<path d="M16.1439 38.8255L13.1975 35.8791L15.8491 33.2275L18.5681 35.9465C20.0728 34.7799 21.9589 34.083 24.0059 34.083H30.1251V28.752C30.1251 25.7665 28.331 23.1289 25.5543 22.0321L21.3044 20.3535C19.4982 21.5703 17.3244 22.2813 14.9875 22.2813C14.9289 22.2813 14.8713 22.2809 14.8125 22.2799C12.6204 22.2465 10.5318 21.5835 8.74425 20.3836L4.57088 22.032C1.79413 23.1289 0 25.7665 0 28.752V49.3703H15.1124V42.9765C15.1124 41.4779 15.4865 40.0656 16.1439 38.8255Z" fill="#835948"/>
<path d="M18.9446 6.77326C20.8817 6.77326 22.4824 5.30739 22.6972 3.42676V0.629761H12.1871C9.47574 0.629761 7.27786 2.82776 7.27786 5.53901V6.77326H18.9446Z" fill="#835948"/>
<path d="M22.6972 10.9467V9.51678C21.5916 10.1554 20.3106 10.523 18.9446 10.523H7.27774V10.8297C7.27774 15.0605 10.6374 18.5909 14.8677 18.6555C19.1735 18.7212 22.6972 15.2377 22.6972 10.9467Z" fill="#835948"/>
<path d="M60.575 19.6436C61.0546 18.1913 60.9886 16.6165 60.389 15.2094L59.4906 13.1015C59.0122 14.9708 58.0404 16.6863 56.6385 18.0881C55.6461 19.0805 54.4957 19.8555 53.2457 20.3948V20.6284C53.2457 23.6441 55.3815 26.1708 58.2196 26.7751L60.575 19.6436Z" fill="#835948"/>
<path d="M51.9131 6.45866C53.3475 6.45866 54.6439 5.65304 55.2846 4.38642C54.0413 2.16354 51.6655 0.65979 48.9375 0.65979C45.4266 0.65979 42.4971 3.14891 41.8173 6.45866H51.9131Z" fill="#835948"/>
<path d="M48.8245 17.6555C52.8843 17.7175 56.2066 14.433 56.2066 10.3873V8.86603C54.9726 9.7224 53.4846 10.2084 51.9131 10.2084H41.6683V10.2769C41.6683 14.2659 44.8359 17.5947 48.8245 17.6555Z" fill="#835948"/>
<path d="M27.4302 48.5148C27.4302 47.1983 26.3591 46.1271 25.0426 46.1271H23.6997V42.3771H25.0426C28.4269 42.3771 31.1802 45.1305 31.1802 48.5148V49.3703H41.2644C41.3941 48.7384 41.1874 48.0873 40.7056 47.6444L38.7587 45.8545L38.7329 38.5334H41.8801C43.1249 38.5334 44.1376 37.5206 44.1376 36.2759V34.7191L41.25 33.1136L40.9412 32.473C40.5499 31.6604 39.7147 31.1356 38.8136 31.1356H36.9386V28.7494H35.9981C34.7951 28.7494 33.8164 29.7283 33.8164 30.9313L33.8886 37.8329H24.0059C21.1697 37.8329 18.8625 40.1403 18.8625 42.9764V49.3701H27.4304L27.4302 48.5148Z" fill="#835948"/>
</svg>
