<svg width="64" height="58" viewBox="0 0 64 58" fill="none" xmlns="http://www.w3.org/2000/svg">
<path d="M25.0418 22.4846C24.1172 20.6732 21.6367 22.1728 22.4681 23.8019C23.1262 25.0913 24.5917 25.8028 25.0048 25.5917C25.4069 25.3863 25.6876 23.7501 25.0418 22.4846Z" fill="#835948"/>
<path d="M31.9999 28.968C28.1119 28.968 25.3347 32.0806 24.6007 35.1553C23.4341 40.0428 27.7035 42.1486 31.3955 39.7432C31.7625 39.5029 32.2369 39.5029 32.6042 39.7432C36.2898 42.1258 40.5721 40.0687 39.3991 35.1553C38.665 32.0806 35.8879 28.968 31.9999 28.968Z" fill="#835948"/>
<path d="M32 22.9335C32.5836 22.9335 33.628 21.4079 33.628 19.9069C33.628 17.6703 30.3716 17.7719 30.3716 19.9105C30.3716 21.4098 31.4164 22.9335 32 22.9335Z" fill="#835948"/>
<path d="M32 4.85478C3.92814 -12.7659 -23.1619 33.1407 32 57.0785C87.1619 33.1408 60.0719 -12.7659 32 4.85478ZM13.1439 12.35C10.6848 14.6909 9.13476 17.9374 8.7789 21.4912C8.72193 22.0602 8.24221 22.4848 7.68235 22.4848C7.02579 22.4848 6.51821 21.9188 6.58304 21.2713C6.99145 17.1923 8.78111 13.4563 11.6223 10.7515C12.0639 10.3312 12.7622 10.3484 13.1825 10.7898C13.6025 11.2313 13.5854 11.9298 13.1439 12.35ZM17.7101 9.50278C16.9997 9.76361 16.9374 9.85795 16.6092 9.85795C16.1818 9.85795 15.775 9.60802 15.5952 9.19064C15.3541 8.63078 15.6126 7.98168 16.1723 7.74071C16.4265 7.6312 16.688 7.52706 16.9492 7.43106C17.5214 7.22113 18.1553 7.5145 18.3655 8.0865C18.5756 8.6585 18.2821 9.29257 17.7101 9.50278ZM35.835 19.9068C35.835 22.3271 34.1597 25.1403 32.0001 25.1403C29.8401 25.1403 28.1648 22.3289 28.1648 19.9104C28.1647 14.838 35.835 14.7683 35.835 19.9068ZM20.5023 24.8051C18.2955 20.4813 24.8004 17.1574 27.0075 21.4813C28.0497 23.5232 27.8401 26.6221 26.008 27.5574C24.1148 28.5236 21.4978 26.7556 20.5023 24.8051ZM31.9999 41.9381C26.3601 44.8715 20.9481 40.9517 22.4541 34.6429C23.389 30.7262 26.9681 26.761 31.9999 26.761C37.0316 26.761 40.6106 30.7261 41.5457 34.6429C43.0572 40.9763 37.6152 44.8585 31.9999 41.9381ZM43.4975 24.8051C42.4989 26.7617 39.8768 28.5193 37.9919 27.5574C36.1596 26.6224 35.9504 23.5232 36.9926 21.4811C39.1992 17.1586 45.7039 20.4824 43.4975 24.8051Z" fill="#835948"/>
<path d="M38.9582 22.4844C38.3123 23.75 38.593 25.3862 38.9952 25.5916C39.4084 25.8024 40.8739 25.0911 41.532 23.8018C42.4094 22.0826 39.836 20.7653 38.9582 22.4844Z" fill="#835948"/>
</svg>
