<svg width="64" height="64" viewBox="0 0 64 64" fill="none" xmlns="http://www.w3.org/2000/svg">
<path d="M52 5V12H12V5C12 4.448 12.448 4 13 4H51C51.552 4 52 4.448 52 5Z" fill="#835948"/>
<path d="M52.916 15H11.084C8.19 25.23 8.01 35.366 8 56C7.998 58.21 9.79 60 12 60H52C54.21 60 56.002 58.21 56 56C55.99 35.366 55.81 25.23 52.916 15ZM38.146 30.676C38.61 28.872 40.04 27.702 41.34 28.066C42.64 28.43 43.318 30.186 42.852 31.99C42.388 33.794 40.958 34.964 39.658 34.6C38.36 34.238 37.682 32.482 38.146 30.676ZM33.146 25.958C33.61 24.154 35.04 22.984 36.34 23.348C37.64 23.71 38.318 25.468 37.852 27.272C37.388 29.076 35.958 30.246 34.658 29.882C33.358 29.518 32.682 27.764 33.146 25.958ZM39 41.6C39 43.01 38.006 44 36.666 44C35.444 44 34.222 43.342 33.336 42.714C32.526 42.14 31.474 42.14 30.664 42.714C29.778 43.342 28.556 44 27.334 44C25.994 44 25 43.01 25 41.6C25 36.8 28.674 32 32 32C35.326 32 39 36.8 39 41.6ZM27.66 23.348C28.96 22.986 30.39 24.154 30.854 25.958C31.318 27.762 30.64 29.52 29.342 29.882C28.044 30.244 26.612 29.076 26.148 27.272C25.682 25.468 26.36 23.71 27.66 23.348ZM22.66 28.066C23.96 27.704 25.39 28.872 25.854 30.676C26.318 32.48 25.64 34.238 24.34 34.6C23.04 34.962 21.61 33.794 21.146 31.99C20.682 30.186 21.36 28.428 22.66 28.066ZM46 53C46 53.552 45.552 54 45 54H19C18.448 54 18 53.552 18 53V51C18 50.448 18.448 50 19 50H45C45.552 50 46 50.448 46 51V53Z" fill="#835948"/>
</svg>
